<?xml version="1.0" encoding="UTF-8" standalone="no"?>
<!-- Created with Inkscape (http://www.inkscape.org/) -->

<svg
   xmlns:dc="http://purl.org/dc/elements/1.1/"
   xmlns:cc="http://creativecommons.org/ns#"
   xmlns:rdf="http://www.w3.org/1999/02/22-rdf-syntax-ns#"
   xmlns:svg="http://www.w3.org/2000/svg"
   xmlns="http://www.w3.org/2000/svg"
   xmlns:sodipodi="http://sodipodi.sourceforge.net/DTD/sodipodi-0.dtd"
   xmlns:inkscape="http://www.inkscape.org/namespaces/inkscape"
   width="500"
   height="200"
   id="svg4544"
   version="1.1"
   inkscape:version="0.48.3.1 r9886"
   sodipodi:docname="logo-blog.svg"
   inkscape:export-filename="/home/fernando/Documentos/vagrant/Projects/da2k/arquivos-fonte/inkscape/logo-da2k-blog.png"
   inkscape:export-xdpi="90"
   inkscape:export-ydpi="90">
  <defs
     id="defs4546" />
  <sodipodi:namedview
     id="base"
     pagecolor="#ffffff"
     bordercolor="#666666"
     borderopacity="1.0"
     inkscape:pageopacity="0.0"
     inkscape:pageshadow="2"
     inkscape:zoom="0.5"
     inkscape:cx="318.65696"
     inkscape:cy="31"
     inkscape:document-units="px"
     inkscape:current-layer="text2993-2-1"
     showgrid="false"
     inkscape:window-width="1366"
     inkscape:window-height="722"
     inkscape:window-x="0"
     inkscape:window-y="24"
     inkscape:window-maximized="1" />
  <metadata
     id="metadata4549">
    <rdf:RDF>
      <cc:Work
         rdf:about="">
        <dc:format>image/svg+xml</dc:format>
        <dc:type
           rdf:resource="http://purl.org/dc/dcmitype/StillImage" />
        <dc:title></dc:title>
      </cc:Work>
    </rdf:RDF>
  </metadata>
  <g
     inkscape:label="Camada 1"
     inkscape:groupmode="layer"
     id="layer1"
     transform="translate(0,-852.36218)">
    <g
       style="font-size:40px;font-style:normal;font-weight:normal;line-height:125%;letter-spacing:0px;word-spacing:0px;fill:#ff0000;fill-opacity:1;stroke:none;font-family:Sans"
       id="text2993-2-1">
      <g
         id="g3938">
        <path
           id="text3665"
           d="m 421.0333,891.74501 0,19.43903 1.06915,0 c -2e-5,-0.24461 0.4427,-1.53481 1.23924,-3.71772 l 0,-10.91015 c -5e-5,-1.2623 -0.57733,-2.6707 -1.74951,-4.20369 -0.16367,-0.2182 -0.35579,-0.41127 -0.55888,-0.60747 z m -99.30916,1.04484 c 15.41549,51.2641 23.37534,78.13779 23.37544,78.99538 -10e-5,0.90171 -0.54607,1.79546 -1.62802,2.69716 -2.52488,1.98377 -7.53256,2.98876 -15.01666,2.98876 -11.93827,0 -19.50912,-1.06422 -22.71937,-3.18315 l 0.55888,5.17565 c 0.36062,3.78718 8.53287,5.68591 24.49318,5.68591 7.4841,0 12.49177,-1.00499 15.01665,-2.98875 1.08195,-0.9017 1.62792,-1.79545 1.62802,-2.69716 -10e-5,-0.9017 -8.52012,-29.68196 -25.56233,-86.30931 -0.038,-0.1268 -0.0923,-0.24363 -0.14579,-0.36449 z m 148.27123,6.00181 c -0.61351,1.9932 -2.37681,5.0294 -5.29714,9.16064 -3.60692,5.1398 -9.10494,12.02192 -16.49888,20.67827 1.22588,1.29048 2.97773,3.13436 4.66537,4.93266 6.19058,-7.33864 10.96276,-13.36767 14.1662,-17.93251 3.69691,-5.22984 5.56433,-8.76648 5.56442,-10.56998 -7e-5,-2.25796 -0.88822,-4.34234 -2.59997,-6.26908 z m -264.90544,2.79436 c -2.16414,7e-5 -3.60386,0.17396 -4.32518,0.53457 l 0,54.64798 2.33268,0.24299 0,-47.21255 c 0.72132,-0.36061 2.16104,-0.5345 4.32519,-0.53458 2.50328,7e-5 4.47917,1.13258 5.9046,3.40184 -0.34029,-2.39629 -0.78659,-4.28695 -1.33643,-5.66162 -1.44279,-3.60677 -3.74493,-5.41856 -6.90086,-5.41863 z m 45.43875,6.87655 c 1.25657,5.70559 1.89526,12.47378 1.8953,20.3138 -9e-5,17.94404 -3.42549,30.57799 -10.27839,37.88181 -6.85307,7.21368 -18.8298,10.81297 -35.96221,10.81297 l -31.92861,0 c -4.37543,0 -7.34759,-0.30437 -8.89336,-0.92336 l 0,4.54388 c -1e-5,1.44273 0.75118,2.47905 2.28408,3.11024 1.5329,0.63119 4.52358,0.94765 8.94196,0.94765 l 31.90432,0 c 17.1324,0 29.13344,-3.62358 35.98651,-10.83726 1.4231,-1.51674 2.68733,-3.27295 3.81491,-5.24854 0.69053,-3.21566 2.66479,-10.09441 5.88031,-20.62967 0.39363,-3.68934 0.58314,-7.67882 0.58317,-11.97931 -7e-5,-11.72152 -1.41921,-21.04175 -4.22799,-27.99221 z m 44.66118,4.49528 -2.30839,24.34739 3.06165,0 1.57942,-16.69327 1.26354,0 -0.63177,-7.65412 -2.96445,0 z m 130.02284,37.73603 -4.1794,5.00555 0,17.56802 c -4e-5,1.17223 -2.81682,2.1216 -8.40738,2.84296 -5.50045,0.72137 -10.99848,1.09345 -16.49888,1.09345 -5.47818,0 -8.97869,-0.32155 -10.52138,-0.94765 l 0,4.68966 c 0,1.35257 0.77548,2.35756 2.30839,2.98875 1.53289,0.6312 5.04524,0.94766 10.54567,0.94766 5.5004,0 10.99843,-0.37208 16.49889,-1.09345 5.59055,-0.72137 8.38303,-1.67073 8.38308,-2.84296 l 0,-17.59232 4.20369,-5.00555 c 3.78713,9.28762 6.98301,16.28098 9.59802,20.96985 2.70507,4.59872 4.83332,6.90086 6.36629,6.90086 2.34437,0 5.91234,-0.94937 10.69146,-2.84296 4.77898,-1.98375 9.27202,-4.49111 13.51013,-7.55692 4.23795,-3.15597 6.36619,-5.91714 6.36629,-8.26159 -6e-5,-1.45989 -0.8624,-3.53681 -2.57567,-6.22049 -0.67714,2.00613 -2.7313,4.27766 -6.1233,6.80366 -4.23811,3.06581 -8.73115,5.59747 -13.51013,7.58122 -4.77912,1.89359 -8.34709,2.81866 -10.69147,2.81866 -1.53297,0 -3.66122,-2.27784 -6.36628,-6.87656 -2.61501,-4.68887 -5.8109,-11.68223 -9.59802,-20.96985 z m -135.17419,12.29518 -0.68036,7.58123 c -0.18039,2.61496 -1.56448,4.42675 -4.1794,5.41863 -2.52482,0.99188 -7.1291,1.48223 -13.80171,1.48223 -6.67267,0 -12.25763,-0.5773 -16.76617,-1.74952 -1.3663,-0.39036 -2.50663,-0.81281 -3.45043,-1.26353 -0.55779,2.18753 -0.85045,3.60884 -0.85045,4.17939 0,1.89359 2.21519,3.47588 6.63357,4.73826 4.50853,1.17222 10.0935,1.77381 16.76616,1.77381 6.67262,0 11.2769,-0.51464 13.80172,-1.50652 2.61491,-0.99188 3.999,-2.77937 4.17939,-5.39433 l 0.68037,-7.58123 11.49333,0 -0.82616,-7.67842 -12.99986,0 z"
           style="font-size:173.94940185999999471px;font-style:normal;font-variant:normal;font-weight:normal;font-stretch:normal;line-height:125%;letter-spacing:0px;word-spacing:0px;fill:#e6e6e6;fill-opacity:1;stroke:none;font-family:Days One;-inkscape-font-specification:Days One"
           inkscape:connector-curvature="0" />
        <path
           d="m 204.33746,976.0016 -31.92049,0 c -4.41838,0 -7.39402,-0.3156 -8.92692,-0.94679 -1.53291,-0.63119 -2.29936,-1.66816 -2.29936,-3.1109 l 0,-85.34674 c 0,-2.34436 0.99188,-4.01251 2.97565,-5.00449 1.98374,-1.08195 5.41024,-1.62298 10.27947,-1.62307 l 30.43268,0 c 17.31275,9e-5 29.26037,3.42659 35.84293,10.27948 6.58238,6.76289 9.87362,19.1163 9.87371,37.06023 -9e-5,17.94404 -3.42658,30.56796 -10.27948,37.87178 -6.85306,7.21367 -18.84578,10.8205 -35.97819,10.8205 m -1.08204,-75.8788 c -2.16415,8e-5 -3.60688,0.18042 -4.3282,0.54103 l 0,54.64356 5.13973,0.54102 c 2.70508,2e-5 4.73392,-2.16408 6.08654,-6.49231 1.44267,-4.32817 2.16404,-11.81234 2.1641,-22.45255 -6e-5,-10.6401 -0.72143,-17.7636 -2.1641,-21.37049 -1.44279,-3.60677 -3.74214,-5.41018 -6.89807,-5.41026"
           style="font-size:173.94940185999999471px;font-style:normal;font-variant:normal;font-weight:normal;font-stretch:normal;line-height:125%;letter-spacing:-12.59000874000000003px;word-spacing:0px;fill:#000000;fill-opacity:1;stroke:none;font-family:Titan One;-inkscape-font-specification:Titan One"
           id="path4655"
           inkscape:connector-curvature="0" />
        <path
           d="m 287.53246,969.10353 c -0.18038,2.61496 -1.57803,4.41837 -4.19294,5.41025 -2.52482,0.99188 -7.12354,1.48782 -13.79615,1.48782 -6.67266,0 -12.26325,-0.58611 -16.77178,-1.75833 -4.41838,-1.26239 -6.62757,-2.84038 -6.62757,-4.73397 0,-2.1641 4.01261,-15.96023 12.03782,-41.38843 8.02519,-25.51829 12.6239,-40.21614 13.79615,-44.09357 0.45083,-1.17213 4.05765,-2.11893 10.8205,-2.84039 6.85294,-0.81144 14.15678,-1.21721 21.91153,-1.2173 7.8448,9e-5 12.173,1.35265 12.98461,4.05769 17.04221,56.62735 25.56335,85.39183 25.56345,86.29354 -1e-4,0.90171 -0.54113,1.80342 -1.62308,2.70513 -2.52488,1.98376 -7.52936,2.97563 -15.01345,2.97563 -15.96032,0 -24.12077,-1.89359 -24.4814,-5.68076 l -0.9468,-8.79166 -12.9846,0 -0.67629,7.57435 m 10.82051,-33.27306 -2.02885,-24.34614 -2.97563,0 -2.29936,24.34614 7.30384,0"
           style="font-size:173.94940185999999471px;font-style:normal;font-variant:normal;font-weight:normal;font-stretch:normal;line-height:125%;letter-spacing:-12.59000874000000003px;word-spacing:0px;fill:#000000;fill-opacity:1;stroke:none;font-family:Titan One;-inkscape-font-specification:Titan One"
           id="path4657"
           inkscape:connector-curvature="0" />
        <path
           d="m 419.18663,971.80866 c -4e-5,1.17222 -2.79534,2.11901 -8.38589,2.84038 -5.50046,0.72137 -11.00087,1.08206 -16.50127,1.08206 -5.50044,0 -9.0171,-0.31561 -10.55,-0.9468 -1.53291,-0.6312 -2.29936,-1.62308 -2.29936,-2.97564 l 0,-82.91213 c 0,-2.34436 2.52478,-4.41829 7.57436,-6.22179 5.13972,-1.80333 11.04591,-2.70504 17.71858,-2.70513 5.50039,9e-5 9.06213,1.08215 10.68525,3.24615 1.17218,1.533 1.75829,2.93064 1.75833,4.19295 l 0,22.31729 1.08205,0 c -5e-5,-0.45079 1.35252,-4.19287 4.05769,-11.22627 5.13969,-13.25504 8.88178,-19.88259 11.22627,-19.88269 4.41832,10e-5 10.6401,1.30758 18.66538,3.92244 3.87727,1.26248 7.21358,3.11098 10.00897,5.54551 2.7952,2.34453 4.19285,4.95948 4.19295,7.84487 -10e-5,1.80349 -1.8486,5.32015 -5.54552,10.54999 -3.60691,5.1398 -9.10733,12.03787 -16.50126,20.69422 1.71317,1.80347 3.87727,4.10282 6.4923,6.89807 2.61488,2.79533 6.08645,6.98828 10.41473,12.57884 4.41829,5.50045 6.62747,9.42287 6.62756,11.7673 -9e-5,2.34446 -2.1191,5.09467 -6.35704,8.25064 -4.23812,3.06582 -8.74666,5.5906 -13.52563,7.57435 -4.77913,1.89359 -8.34087,2.84039 -10.68525,2.84039 -1.53297,0 -3.65198,-2.29936 -6.35705,-6.89808 -2.61502,-4.68887 -5.81607,-11.67711 -9.6032,-20.96473 l -4.19295,5.00448 0,17.58333"
           style="font-size:173.94940185999999471px;font-style:normal;font-variant:normal;font-weight:normal;font-stretch:normal;line-height:125%;letter-spacing:-12.59000874000000003px;word-spacing:0px;fill:#000000;fill-opacity:1;stroke:none;font-family:Titan One;-inkscape-font-specification:Titan One"
           id="path4659"
           inkscape:connector-curvature="0" />
        <path
           id="text3665-8"
           d="m 396.01488,899.44273 c 1.18359,3.92595 1.26588,8.32308 0.26728,13.19424 -1.01418,4.94674 -3.01883,9.37345 -6.0261,13.26715 -3.00742,3.89377 -6.05577,6.89003 -9.16064,9.01485 -3.08691,2.03655 -6.57511,3.81936 -10.47278,5.32143 -4.48213,1.65847 -8.6997,2.82818 -12.61107,3.49903 l 12.48958,2.55137 c 0.82033,-0.27624 1.63808,-0.56379 2.47847,-0.87475 3.89768,-1.50207 7.38587,-3.26059 10.47278,-5.29714 3.10487,-2.12482 6.15322,-5.14537 9.16065,-9.03915 3.00726,-3.89369 5.03621,-8.29611 6.0504,-13.24284 1.46451,-7.1439 0.58043,-13.28329 -2.64857,-18.39419 z m -50.22561,6.80366 c -2.20205,0.0778 -4.50858,0.40887 -6.92515,0.97195 -4.74489,1.1444 -7.42459,1.65765 -8.0429,1.53083 -0.61834,-0.12675 -1.19592,-0.44015 -1.70092,-0.92336 0.8324,3.67458 2.17949,5.71396 4.0579,6.099 0.61831,0.12682 3.29801,-0.36213 8.0429,-1.50652 4.83316,-1.12617 9.24348,-1.30083 13.21854,-0.48598 0.99374,0.20374 1.84002,0.48343 2.55138,0.80186 0.0989,-0.26638 0.16569,-0.51906 0.21869,-0.77756 0.54322,-2.64996 -1.15208,-4.38498 -5.12705,-5.19994 -1.98753,-0.40742 -4.09133,-0.58811 -6.29339,-0.51028 z m 41.35655,48.18451 c 0.0187,0.18378 0.0317,0.33907 0.0486,0.53457 0.23575,2.44156 -0.005,5.40861 -0.72897,8.94196 -0.70633,3.44501 -1.52364,6.33159 -2.45418,8.62607 -0.91257,2.20612 -1.7887,3.78071 -2.62427,4.71396 -1.81401,2.11337 -3.27763,3.12658 -4.37378,3.08595 l -0.68036,0 -58.02552,-11.88211 c -0.91591,-0.18776 -1.71275,-0.611 -2.38128,-1.23924 0.66109,3.76941 2.24702,5.90417 4.73826,6.41488 l 58.02552,11.90641 0.70466,0 c 1.09616,0.0406 2.53547,-0.99688 4.34949,-3.11024 0.83556,-0.93326 1.71169,-2.48355 2.62427,-4.68967 0.93053,-2.29447 1.74785,-5.18105 2.45418,-8.62607 0.72427,-3.53335 0.98901,-6.5247 0.75326,-8.96626 -0.21781,-2.52987 -0.61434,-4.07262 -1.14205,-4.64107 -0.42777,-0.55112 -0.84586,-0.90398 -1.28783,-1.06914 z"
           style="font-size:173.94940185999999471px;font-style:normal;font-variant:normal;font-weight:normal;font-stretch:normal;line-height:125%;letter-spacing:0px;word-spacing:0px;fill:#e6e6e6;fill-opacity:1;stroke:none;font-family:Days One;-inkscape-font-specification:Days One"
           inkscape:connector-curvature="0" />
        <path
           d="m 330.08087,907.64022 c -2.47337,-0.507 -4.03994,-3.86567 -4.69974,-10.07605 -0.5715,-6.19215 -0.30492,-11.98242 0.79974,-17.37086 0.25351,-1.23658 1.90337,-2.32507 4.94959,-3.26545 3.06428,-1.02854 7.50571,-1.59076 13.3243,-1.68666 5.8185,-0.0957 11.99612,0.52641 18.53287,1.86638 25.35171,5.19737 36.20764,16.67354 32.56783,34.42855 -1.01419,4.94674 -3.02491,9.36695 -6.03218,13.26064 -3.00743,3.89378 -6.06358,6.90308 -9.16844,9.0279 -3.08692,2.03655 -6.5792,3.80585 -10.47688,5.30792 -4.48213,1.65846 -8.67887,2.82312 -12.59024,3.49396 l 26.50013,5.43269 c 0.52992,0.10867 1.04976,0.49138 1.55953,1.14814 0.52771,0.56844 0.90046,2.1176 1.11827,4.64747 0.23576,2.44156 -0.008,5.429 -0.73278,8.96235 -0.70633,3.44501 -1.52476,6.31476 -2.45529,8.60922 -0.91258,2.20613 -1.78665,3.77582 -2.62222,4.70907 -1.81402,2.11336 -3.2691,3.14973 -4.36525,3.1091 l -0.68968,-0.003 -58.03528,-11.8976 c -5.56503,-1.14087 -6.56382,-10.41217 -2.99634,-27.81392 0.39838,-1.94332 7.23567,-6.11042 20.51187,-12.50134 4.98024,-2.29263 9.67056,-4.96691 14.07097,-8.02283 4.40032,-3.05584 6.84497,-5.77628 7.33396,-8.16134 0.54322,-2.64996 -1.17266,-4.38242 -5.14762,-5.19738 -3.97506,-0.81484 -8.37916,-0.65918 -13.21232,0.46698 -4.74489,1.1444 -7.42648,1.65319 -8.0448,1.52637"
           style="font-size:173.94940185999999471px;font-style:normal;font-variant:normal;font-weight:normal;font-stretch:normal;line-height:125%;letter-spacing:-12.59000874000000003px;word-spacing:0px;fill:#ff0000;fill-opacity:1;stroke:none;font-family:Titan One;-inkscape-font-specification:Titan One"
           id="path4652"
           inkscape:connector-curvature="0" />
        <path
           id="path4010"
           d="m 136.50208,883.71406 c 0.26716,8.83157 -0.0235,75.64939 -0.0235,75.64939 0,15.39779 -10.54692,30.35819 -24.59607,42.90175 -14.049153,12.5436 -31.588107,22.6657 -37.695121,23.159 -12.383045,-4.2545 -30.076711,-16.6957 -40.051066,-26.10391 1.338261,1.71951 2.56981,3.11651 3.581036,4.00511 9.054469,9.5523 29.277961,24.273 42.972442,28.9781 6.107013,-0.4932 23.645969,-10.6154 37.695119,-23.1589 14.04915,-12.54359 24.59607,-27.50401 24.59607,-42.90178 0,0 0.29904,-70.26469 0,-76.54466 -0.29905,-6.27996 -5.96055,-5.9841 -5.96055,-5.9841 l -0.5183,0 z m -61.914234,11.35566 0.353393,110.77648 c 0,0 2.590998,-1.4078 6.478844,-3.8637 l -0.329834,-100.03342 37.388851,0.25915 c -0.11092,-4.23765 -0.23559,-6.83225 -0.23559,-6.83225 l -43.655664,-0.30626 z"
           style="fill:#e6e6e6;stroke:none"
           inkscape:connector-curvature="0" />
        <path
           inkscape:connector-curvature="0"
           id="path4010-7-7"
           d="m 127.29371,873.95397 -110.960594,0.29008 c -5.083775,0.29904 -6.8649371,4.79578 -6.8649371,4.79578 0,0 -0.5262466,65.06493 0,80.31009 0.2990423,8.66333 12.8437901,29.21595 18.5256591,34.20866 9.054473,9.55232 29.274225,24.28232 42.968706,28.98742 6.107021,-0.4932 23.65966,-10.6232 37.708806,-23.16672 14.04916,-12.54357 24.59775,-27.49358 24.59775,-42.89136 0,0 0.29905,-70.27858 0,-76.55855 -0.29905,-6.27995 -5.97539,-5.9754 -5.97539,-5.9754 z m -55.925069,18.23561 43.664869,0.3094 c 0,0 1.34657,29.59249 -0.59947,65.47795 -2.08432,22.95231 -42.717316,44.97987 -42.717316,44.97987 L 71.368641,892.18958 z"
           style="fill:#ff0000;stroke:none" />
        <g
           transform="matrix(0.62517974,0,0,0.62517974,95.183792,359.83644)"
           id="g3877">
          <path
             style="fill:#e6e6e6;stroke:none"
             d="m 135.86121,1025.4213 c 86.65608,17.5808 170.26131,16.8099 249.67038,-6.7025 0,0 -110.59225,66.1878 -249.67038,6.7025 z"
             id="path4106"
             inkscape:connector-curvature="0"
             sodipodi:nodetypes="ccc" />
          <path
             style="fill:#ff0000;stroke:none"
             d="m 136.19581,1031.0011 c 86.65608,17.5806 170.26132,16.8097 249.67039,-6.7026 0,0 -110.59225,66.1878 -249.67039,6.7026 z"
             id="path4106-3"
             inkscape:connector-curvature="0"
             sodipodi:nodetypes="ccc" />
        </g>
        <path
           inkscape:connector-curvature="0"
           id="text2993"
           d="m 391.20841,996.4593 0,19 c 0.70106,-0.046 1.20873,-0.057 1.84375,-0.094 l 0,-17.0625 c -1e-5,-0.29997 -0.10251,-0.60622 -0.3125,-0.90625 -0.32189,-0.43453 -0.82946,-0.73608 -1.53125,-0.9375 z m 72.21875,0.40625 c 0.0207,0.19057 0.0312,0.3871 0.0312,0.59375 -3e-5,1.38003 -0.24003,2.88 -0.75,4.5 -0.51003,1.59 -1.26003,2.375 -2.25,2.375 -0.24002,0 -1.26252,-0.2062 -3.0625,-0.6563 -1.80002,-0.4799 -3.16252,-0.7187 -4.0625,-0.7187 -2.58002,0 -3.87501,2.1813 -3.875,6.5312 -1e-5,2.1901 0.30624,3.8263 0.90625,4.9063 0.39491,0.6911 0.85011,1.1493 1.375,1.4375 -0.26147,-0.962 -0.40626,-2.1481 -0.40625,-3.5938 -1e-5,-4.3499 1.29498,-6.5312 3.875,-6.5312 0.89998,0 2.23123,0.2388 4.03125,0.7187 1.79998,0.4501 2.82248,0.6876 3.0625,0.6875 0.98997,10e-5 1.73997,-0.7849 2.25,-2.375 0.50997,-1.6199 0.78122,-3.1199 0.78125,-4.5 -3e-5,-1.61053 -0.64677,-2.74107 -1.90625,-3.37495 z m -89.4375,1.59375 c 0.254,0.85022 0.37497,1.802 0.375,2.9062 -3e-5,2.3401 -0.40878,4.1113 -1.21875,5.2813 -0.78003,1.17 -1.63253,1.8188 -2.5625,1.9687 1.35,0.2873 2.46498,0.9665 3.375,1.9688 0.35877,-0.3131 0.73084,-0.69 1.0625,-1.1875 0.80997,-1.17 1.21872,-2.91 1.21875,-5.25 -3e-5,-1.2 -0.16878,-2.2562 -0.46875,-3.1563 -0.33317,-0.9439 -0.92285,-1.79281 -1.78125,-2.5312 z m -14.53125,1.25 0,6.0937 1.125,0 c 0.26775,0 0.52911,-0.062 0.75,-0.125 l 0,-3.1875 1.4375,0 c 0.0422,0 0.0836,-0 0.125,0 -0.0333,-0.8886 -0.24147,-1.5616 -0.625,-2 -0.39002,-0.50992 -0.83377,-0.78117 -1.34375,-0.7812 l -1.46875,0 z m 73.15625,0.0937 c 1.09262,2.3451 1.65623,5.4064 1.65625,9.1875 -3e-5,5.76 -1.43128,9.9888 -4.28125,12.7187 -2.85003,2.7301 -6.73502,4.0938 -11.625,4.0938 -2.49001,0 -4.63751,-0.2062 -6.4375,-0.6563 -1.77001,-0.4799 -3.37501,-1.3312 -4.875,-2.5312 -0.31748,-0.2483 -0.65328,-0.5164 -0.9375,-0.8125 0.71016,1.5005 1.645,2.705 2.78125,3.5937 1.49999,1.2001 3.13624,2.0201 4.90625,2.5 1.79999,0.4501 3.94749,0.6875 6.4375,0.6875 4.88998,0 8.74372,-1.3637 11.59375,-4.0937 2.84997,-2.73 4.28122,-6.99 4.28125,-12.75 -3e-5,-5.5109 -1.17891,-9.4771 -3.5,-11.9375 z m -14.25,0.3125 c -0.63002,0 -1.10877,0.205 -1.46875,0.625 -0.36002,0.42 -0.66626,1.3388 -0.90625,2.7187 -0.24001,1.3801 -0.34376,3.3251 -0.34375,5.875 -1e-5,2.5501 0.10374,4.5601 0.34375,6 0.23999,1.4101 0.54623,2.3313 0.90625,2.7813 0.28278,0.3299 0.64434,0.523 1.09375,0.5937 -0.0419,-0.2026 -0.0863,-0.3973 -0.125,-0.625 -0.24001,-1.4399 -0.37501,-3.4187 -0.375,-5.9687 -1e-5,-2.55 0.13499,-4.5262 0.375,-5.9063 0.23999,-1.3799 0.51498,-2.2674 0.875,-2.6875 0.35998,-0.4199 0.86998,-0.6249 1.5,-0.625 0.1575,10e-5 0.29688,0 0.4375,0.031 -0.22137,-1.0781 -0.50171,-1.8248 -0.8125,-2.1875 -0.36002,-0.4199 -0.87002,-0.6249 -1.5,-0.625 z m 46,12.0312 0,11.875 c -3e-5,0.3901 -0.78503,0.6976 -2.375,0.9375 -1.56003,0.2401 -3.19627,0.375 -4.90625,0.375 -0.97376,0 -1.72072,-0.043 -2.28125,-0.094 l 0.15625,1.2187 c 0.06,0.75 0.33123,1.2263 0.78125,1.4063 0.44998,0.15 1.50748,0.2187 3.1875,0.2187 1.70998,0 3.34622,-0.135 4.90625,-0.375 1.58997,-0.24 2.37497,-0.5475 2.375,-0.9375 l 0,-12.4688 c -3e-5,-0.4199 -0.20503,-0.8974 -0.625,-1.4375 -0.22443,-0.3085 -0.6272,-0.5413 -1.21875,-0.7187 z m -104.90625,0.4688 0,6.0937 1.125,0 c 0.26902,0 0.52828,-0.062 0.75,-0.125 l 0,-3.1875 1.4375,0 c 0.0422,0 0.0836,-0 0.125,0 -0.0333,-0.8886 -0.24147,-1.5616 -0.625,-2 -0.39002,-0.5099 -0.83377,-0.7812 -1.34375,-0.7812 l -1.46875,0 z m 15.625,0 c 0.28062,0.9646 0.40623,2.1453 0.40625,3.5625 -3e-5,3 -0.92003,5.2163 -2.75,6.6562 -1.59003,1.2601 -4.01127,2.0763 -7.28125,2.4063 -1.38002,0.12 -3.01627,0.1562 -4.90625,0.1562 l -9.84375,0 c -0.78347,0 -1.42411,-0 -1.9375,-0.062 l 0,1.5313 c 0,0.45 0.27125,0.79 0.78125,1 0.51,0.21 1.5,0.3125 3,0.3125 l 9.875,0 c 1.88998,0 3.49498,-0.068 4.875,-0.1875 3.26998,-0.33 5.72247,-1.115 7.3125,-2.375 1.82997,-1.44 2.74997,-3.6562 2.75,-6.6563 -3e-5,-2.5799 -0.47628,-4.4199 -1.40625,-5.5 -0.26924,-0.3126 -0.56553,-0.5964 -0.875,-0.8437 z m 26.25,5.25 c -0.24302,0 -0.6325,0.027 -0.90625,0.031 10e-4,0.08 0,0.1352 0,0.2187 -2e-5,1.9801 -0.13627,3.685 -0.40625,5.125 -0.27002,1.4401 -0.64377,2.1563 -1.09375,2.1563 l -16.5,0 c -0.7675,0 -1.39793,0.01 -1.90625,-0.031 l 0,1.7187 c 0,0.3901 0.24,0.6951 0.75,0.875 0.51,0.1501 1.5,0.2188 3,0.2188 l 16.53125,0 c 0.44998,0 0.82373,-0.7162 1.09375,-2.1563 0.26998,-1.4399 0.37498,-3.1449 0.375,-5.125 -2e-5,-2.0099 -0.30752,-3.0312 -0.9375,-3.0312 z m 51.09375,3.1875 c -0.21002,1.29 -0.75502,2.3825 -1.625,3.3125 -0.84001,0.93 -2.10376,1.4062 -3.84375,1.4062 -1.02001,0 -1.97376,-0.1024 -2.84375,-0.3125 -0.87001,-0.2099 -1.79001,-0.6524 -2.75,-1.3125 -0.37781,-0.2803 -0.72925,-0.5878 -1.0625,-0.9375 0.16406,0.3549 0.34375,0.6851 0.53125,1 0.66,1.1101 1.47624,2.0288 2.40625,2.7188 0.95999,0.66 1.84874,1.0713 2.71875,1.2812 0.86999,0.2101 1.82374,0.3125 2.84375,0.3125 1.73999,0 3.03499,-0.4449 3.875,-1.375 0.56525,-0.6042 0.96335,-1.3062 1.25,-2.0625 -0.0157,-0 -0.0481,0.01 -0.0625,0 -0.45002,-0.1799 -0.69002,-0.625 -0.75,-1.375 l -0.3125,-2.6562 -0.375,0 z"
           style="font-size:40px;font-style:normal;font-weight:normal;line-height:125%;letter-spacing:0px;word-spacing:0px;fill:#e6e6e6;fill-opacity:1;stroke:none;font-family:Sans" />
        <path
           d="m 446.06717,1024.3569 c -1.02001,0 -1.96501,-0.105 -2.835,-0.315 -0.87001,-0.21 -1.78501,-0.645 -2.745,-1.305 -0.93001,-0.69 -1.72501,-1.59 -2.385,-2.7 -1.50001,-2.52 -2.25,-6.315 -2.25,-11.385 0,-2.79 0.375,-5.25 1.125,-7.38 0.74999,-2.12999 1.69499,-3.77999 2.835,-4.95001 1.13999,-1.19997 2.50499,-2.17497 4.095,-2.925 1.58999,-0.74997 3.07498,-1.22997 4.455,-1.44 1.37998,-0.23997 2.84998,-0.35997 4.41,-0.36 3.59997,3e-5 6.13497,0.31503 7.605,0.945 1.46997,0.60003 2.20497,1.77003 2.205,3.51 -3e-5,1.38002 -0.25503,2.88002 -0.765,4.50001 -0.51003,1.59 -1.26003,2.385 -2.25,2.385 -0.24003,0 -1.26003,-0.225 -3.06,-0.675 -1.80002,-0.48 -3.15002,-0.72 -4.05,-0.72 -2.58002,0 -3.87002,2.175 -3.87,6.525 -2e-5,2.19 0.29998,3.825 0.9,4.905 0.59998,1.05 1.34998,1.635 2.25,1.755 l 0,-4.05 c -2e-5,-0.75 0.76498,-1.44 2.295,-2.07 1.52998,-0.63 2.99997,-0.945 4.41,-0.945 1.40997,0 2.42997,0.09 3.06,0.27 0.65997,0.18 1.10997,0.435 1.35,0.765 0.41997,0.54 0.62997,1.02 0.63,1.44 l 0,12.465 c -3e-5,0.39 -0.79503,0.705 -2.385,0.945 -1.56003,0.24 -3.19503,0.36 -4.905,0.36 -1.68002,0 -2.74502,-0.075 -3.195,-0.225 -0.45002,-0.18 -0.70502,-0.645 -0.765,-1.395 l -0.315,-2.655 -0.36,0 c -0.21002,1.29 -0.75002,2.4 -1.62,3.33 -0.84002,0.93 -2.13002,1.395 -3.87,1.395 m -28.56868,0.045 c -2.49001,0 -4.63501,-0.225 -6.435,-0.675 -1.77,-0.48 -3.405,-1.32 -4.905,-2.52 -3.03,-2.37 -4.545,-6.915 -4.545,-13.635 0,-2.82 0.405,-5.28 1.215,-7.38 0.84,-2.09999 1.995,-3.76499 3.465,-4.99501 2.88,-2.39997 6.61499,-3.59997 11.205,-3.6 2.36999,3e-5 4.42498,0.21003 6.165,0.63 1.76998,0.42003 3.43498,1.18503 4.995,2.295 3.14997,2.28002 4.72497,6.63001 4.725,13.05001 -3e-5,5.76 -1.42503,10.005 -4.275,12.735 -2.85002,2.73 -6.72002,4.095 -11.61,4.095 m -1.485,-7.695 c 0.35999,0.42 0.85499,0.63 1.485,0.63 0.62999,0 1.12499,-0.21 1.485,-0.63 0.35999,-0.45 0.65999,-1.38 0.9,-2.79 0.23999,-1.44 0.35999,-3.435 0.36,-5.985 -1e-5,-2.55 -0.12001,-4.515 -0.36,-5.895 -0.24001,-1.38 -0.54001,-2.27999 -0.9,-2.70001 -0.36001,-0.41998 -0.85501,-0.62998 -1.485,-0.63 -0.63001,2e-5 -1.12501,0.21002 -1.485,0.63 -0.36001,0.42002 -0.66001,1.32001 -0.9,2.70001 -0.24001,1.38 -0.36001,3.345 -0.36,5.895 -10e-6,2.55 0.11999,4.545 0.36,5.985 0.23999,1.41 0.53999,2.34 0.9,2.79 m -34.46648,7.29 c -1.5,0 -2.505,-0.075 -3.015,-0.225 -0.51,-0.18 -0.765,-0.465 -0.765,-0.855 l 0,-27.99001 c 0,-0.65997 0.87,-1.30497 2.61,-1.935 1.73999,-0.65997 3.68999,-0.98997 5.85,-0.99 1.91999,3e-5 3.17999,0.40503 3.78,1.215 0.20999,0.30003 0.31499,0.60003 0.315,0.9 l 0,19.93501 c 3.65998,-0.24 6.41998,-0.36 8.28,-0.36 0.62998,0 0.94498,1.005 0.945,3.015 -2e-5,1.98 -0.13502,3.69 -0.405,5.13 -0.27002,1.44 -0.63002,2.16 -1.08,2.16 l -16.515,0 m -21.87352,0 -9.855,0 c -1.5,0 -2.505,-0.105 -3.015,-0.315 -0.51,-0.21 -0.765,-0.54 -0.765,-0.99 l 0,-28.93501 c 0,-1.43997 4.335,-2.15997 13.005,-2.16 4.97999,3e-5 8.41498,0.48003 10.305,1.44 1.91998,0.99003 3.14998,2.25003 3.69,3.78 0.29998,0.90002 0.44998,1.95002 0.45,3.15 -2e-5,2.34001 -0.40502,4.09501 -1.215,5.26501 -0.78002,1.17 -1.63502,1.83 -2.565,1.98 1.40998,0.3 2.57998,0.99 3.51,2.07 0.92997,1.08 1.39497,2.91 1.395,5.49 -3e-5,3 -0.91502,5.22 -2.745,6.66 -1.59002,1.26 -4.02002,2.055 -7.29,2.385 -1.38001,0.12 -3.01501,0.18 -4.905,0.18 m 0.045,-19.62 c 1.52999,0 2.29499,-1.02 2.295,-3.06 -10e-6,-1.02 -0.21001,-1.76999 -0.63,-2.25001 -0.39001,-0.50998 -0.84001,-0.76498 -1.35,-0.765 l -1.44,0 0,6.07501 1.125,0 m -1.125,12.915 1.125,0 c 1.52999,0 2.29499,-1.02 2.295,-3.06 -10e-6,-1.02 -0.21001,-1.77 -0.63,-2.25 -0.39001,-0.51 -0.84001,-0.765 -1.35,-0.765 l -1.44,0 0,6.075"
           style="font-size:45px;font-variant:normal;font-weight:bold;font-stretch:normal;fill:#ff0000;font-family:Titan One;-inkscape-font-specification:Titan One Bold"
           id="path3923" />
      </g>
    </g>
  </g>
</svg>
